<svg width="996" height="736" viewBox="0 0 996 736" fill="none" xmlns="http://www.w3.org/2000/svg">
<path d="M750.51 499.29C738.99 322.94 466.49 289.3 382.88 423.55C346.01 482.76 382.64 514.92 277.42 497.07C151.58 475.72 73.8497 280.22 67.1697 168.05C65.6997 143.42 59.1998 43.61 90.5598 44.32C130.38 45.22 141.92 128.46 174.61 162.22C198.48 186.88 235.65 204.62 270.61 199.48C272.61 170.19 263.43 130.05 280.68 104.92C305.25 69.12 329.08 110.68 354.6 121.31C435.75 155.09 524.45 114.28 607.06 117.56C768.8 123.99 911.57 252.3 941.91 406.25C945.03 422.06 957.34 499.29 939.69 499.29H750.5H750.51Z" fill="#AF0E22"/>
<path d="M623.58 678.7C602.78 657.4 596.22 551.69 661.49 573.28C698.43 585.5 676.31 732.69 623.58 678.7Z" fill="#061830" stroke="white" stroke-width="3" stroke-miterlimit="10"/>
<path d="M508.3 678.7C447.13 741.42 424.8 530.97 501.56 576.3C524.38 589.78 526.38 660.16 508.3 678.7Z" fill="#061830" stroke="white" stroke-width="3" stroke-miterlimit="10"/>
</svg>
