<svg width="2215" height="655" viewBox="0 0 2215 655" fill="none" xmlns="http://www.w3.org/2000/svg">
<path d="M942.65 144.32C1022.45 151.13 1084.65 199.77 1061.93 287.6C1053.59 319.84 1027.5 329.48 1004.66 348.28C1083.22 361.62 1100.37 476.36 1050.22 527.89C1029.68 549 979.5 568.33 950.66 568.33H744.66V144.33C808.81 148.35 879.27 138.92 942.66 144.33L942.65 144.32ZM828.65 316.32H942.65C947.05 316.32 969.09 299.73 972.67 294.34C991 266.73 973.4 212.32 942.65 212.32H828.65V316.32ZM938.65 380.32C904.79 376.12 863.39 383.42 828.65 380.32V500.32H942.65C959.78 500.32 987.83 479.3 991.81 461.47C1001.28 419.04 982.1 385.71 938.65 380.32Z" fill="#061830"/>
<path d="M479.77 141.43C560.34 131.79 665.15 145.53 690.72 236.24C701.41 274.15 701.43 442.16 689.84 479.51C650.12 607.53 395.56 609.98 358.47 472.49C347.53 431.92 348.02 274.05 360.41 234.09C376.7 181.59 426.31 147.83 479.76 141.44L479.77 141.43ZM515.8 205.39C487.01 208.03 456.38 223.06 445.47 251.14C431.98 285.86 432.25 419.54 443.38 455.58C464.4 523.61 582.72 526.63 606.53 456.2C617.2 424.64 616.87 284.76 605.39 253.58C591.52 215.94 554.05 201.89 515.8 205.4V205.39Z" fill="#061830"/>
<path d="M1742.65 568.32C1741.42 568.01 1735.14 562.56 1738.25 560.05L1854.72 188.39C1888.14 114.47 1994.96 124.43 2016.08 202.88L2127.05 560.05C2130.35 562.66 2123.2 568.32 2122.65 568.32H2046.65C2032.2 556.96 2020.71 475.61 2012.89 470.08L1852.49 470.16C1843.74 481.95 1828.23 568.32 1818.65 568.32C1797.6 564.84 1761.38 573.06 1742.65 568.32ZM1996.65 404.32C1974.77 352.32 1968.19 283.46 1945.83 233.14C1937.85 215.17 1930.91 208.06 1920.45 230.13L1868.65 404.32H1996.65Z" fill="#061830"/>
<path d="M1392.65 144.32V212.32H1242.65C1235.7 212.32 1209.13 222.73 1203.6 228.15C1201.1 230.6 1188.65 252.81 1188.65 254.32V320.32C1192.58 319.02 1197.33 324.32 1198.65 324.32H1364.65V388.32H1188.65V454.32C1188.65 475.32 1222.21 500.32 1242.65 500.32H1392.65V568.32H1238.65C1223.2 568.32 1184.79 559.69 1169.5 553.47C1142.23 542.39 1120.49 520.33 1110.77 492.2C1094.54 445.2 1094.52 263.99 1111.92 217.58C1126.9 177.63 1160.24 158.28 1200.42 150.08C1206.58 148.82 1230.82 144.31 1234.65 144.31H1392.65V144.32Z" fill="#061830"/>
<path d="M1676.8 260.23C1655.23 194.72 1528.98 186.27 1504.45 250.12C1492.37 281.57 1492.43 419.93 1501.81 453.16C1524.31 532.88 1656.78 516.86 1686.65 448.38C1696.16 462.91 1736.76 480.05 1742.94 492.39C1746.28 499.06 1736.69 508.96 1732.53 514.2C1654.2 613.09 1423.65 597 1412.48 442.48C1408.95 393.67 1406.76 262.52 1423.94 221.6C1456.75 143.49 1547.52 133.66 1622.58 140.37C1669.4 144.56 1718.44 172.63 1740.24 214.99C1741.45 220.31 1736.93 221.19 1734.15 223.79C1728.52 229.04 1679.65 262.16 1676.8 260.23Z" fill="#061830"/>
<path d="M164.65 144.32V442.32C164.65 448.95 173.5 473.93 178.47 480.5C184.5 488.47 205.57 500.32 214.65 500.32H360.65V562.32C360.65 566.7 350.88 568.05 346.85 568.52C298.37 574.21 169.82 571.52 129.66 545.3C109.33 532.02 80.6401 490.2 80.6401 466.32V144.32H164.64H164.65Z" fill="#061830"/>
<path d="M611.26 288.9C606.19 211.27 486.22 196.45 449.42 255.56C433.19 281.62 449.31 295.79 402.99 287.93C347.59 278.53 313.37 192.46 310.43 143.08C309.78 132.23 306.92 88.3 320.73 88.61C338.26 89.01 343.34 125.65 357.73 140.51C368.24 151.37 384.6 159.18 399.99 156.91C400.87 144.02 396.83 126.34 404.42 115.28C415.24 99.5201 425.73 117.82 436.96 122.49C472.69 137.36 511.73 119.39 548.1 120.84C619.31 123.67 682.16 180.16 695.51 247.93C696.88 254.89 702.3 288.89 694.53 288.89H611.24L611.26 288.9Z" fill="#AF0E22"/>
<path d="M555.38 367.89C546.22 358.51 543.33 311.97 572.07 321.48C588.33 326.86 578.59 391.66 555.38 367.89Z" fill="#061830"/>
<path d="M504.63 367.89C477.7 395.5 467.87 302.85 501.66 322.81C511.71 328.74 512.59 359.73 504.63 367.89Z" fill="#061830"/>
</svg>
